<svg id="Ñëîé_1" data-name="Ñëîé 1" xmlns="http://www.w3.org/2000/svg" xmlns:xlink="http://www.w3.org/1999/xlink" viewBox="0 0 3700 1241.16"><defs><style>.cls-1{fill:none;}.cls-2{clip-path:url(#clip-path);}.cls-3{fill:#4fd995;}.cls-4{fill:#87e355;}.cls-5{fill:#3ab54b;}.cls-6{fill:#0ab361;}.cls-7{fill:#175177;}.cls-8{fill:#abfc89;}.cls-9{clip-path:url(#clip-path-2);}.cls-10{opacity:0.7;}.cls-11{fill:#0aa65a;}</style><clipPath id="clip-path"><rect class="cls-1" width="3700" height="1241.16" transform="translate(3700 1241.16) rotate(180)"/></clipPath><clipPath id="clip-path-2"><circle class="cls-1" cx="1771.16" cy="371.75" r="171.87"/></clipPath></defs><g class="cls-2"><path class="cls-3" d="M3750.57,183.91s-92.28-46.7-496.77,117.94c-182,74.08-271.55,36.51-449.28,77.21s-282.28,113.54-368,115.68-244.64,40.7-363.82,96.4-403.56,77.24-526.92,80.39-389.6-139-651.92-96.82c-212.67,34.21-271.54-116.77-365-130.24-229.3-33-285.37-106.2-381.56-142.62S-60.08,281.21-60.08,281.21V1364.47H3760.08Z"/><path class="cls-4" d="M3561.44,522.59c-89.91-6.43-255.1-47.67-391,.8s-196.55,121.3-313.64,121.3-230-81.4-328.28-85.68-519.46,171-719.29,157.41c-69.85-4.75-158.51-42.91-267.63-82.44-207-75-202.83-107.11-374.28-87.83S735.53,674.69,735.53,674.69v631.08l3024.55,11.78V494.74S3651.35,529,3561.44,522.59Z"/><path class="cls-5" d="M3760.08,786.08s-303.19-102.83-399.37-113.54S2957.16,739,2835.88,771.08s-315.73,122.11-382.64,107.11V1355.9H3760.08Z"/><path class="cls-5" d="M2064.2,802.18s-95.79,10.53-326.52-73.38c-242.15-88-356.29-88.07-551.7-30.27-160.84,47.58-380.15-7-430.62-19.26l205.35,556.39h985.88Z"/><path class="cls-5" d="M839,676s-154.3-70.07-436.79-73.74c-165.63-2.15-215.59-75.15-297.13-78.36s-165.19,0-165.19,0V866.62H823Z"/><path class="cls-6" d="M3760.08,876.05s0-26.18-511.78,64.63c-101.16,17.94-270-100.31-434.75-99.06-506.36,3.83-435.92-127.44-800.72-93.56-157.71,14.65-182.65,71.09-417.93,70.15-341.51-1.36-513.57-117.81-770.75-149.94S-60.08,685.9-60.08,685.9v678.57H3760.08Z"/><path class="cls-7" d="M3760.08,1106.55s-405.65,102.82-497.65,83.54-447.46-154.23-621-199.22-391.47-33.19-554.1-10.71c-550.54,76.08-627.56-105.52-1216.4-45C576,965.49,460,816,213.29,803.1S-60.08,676-60.08,676v629.8H3760.08Z"/><path class="cls-8" d="M1783,250c7.72,0,7.73-12,0-12s-7.73,12,0,12Z"/></g><g class="cls-9"><g class="cls-10"><circle class="cls-11" cx="1907.4" cy="447.65" r="102.14"/></g><g class="cls-10"><circle class="cls-4" cx="1907.4" cy="273.44" r="105.73"/></g><g class="cls-10"><circle class="cls-3" cx="1783.44" cy="337.56" r="108.23"/></g><g class="cls-10"><circle class="cls-6" cx="1771.16" cy="221.62" r="100.95" transform="translate(-5.47 49.23) rotate(-1.59)"/></g><g class="cls-10"><circle class="cls-6" cx="1665.43" cy="415.33" r="105.73"/></g><g class="cls-10"><circle class="cls-5" cx="1654.1" cy="286.04" r="104.18" transform="translate(282.22 1253.4) rotate(-45)"/></g><g class="cls-10"><path class="cls-7" d="M1850.71,406.15v118A170.05,170.05,0,0,1,1795,542V280.28c0-39.56-25.58-64.41-48.33-78.67a174,174,0,0,1,24.53-1.73,170.87,170.87,0,0,1,44.09,5.71c9.87,15.58,17,33,17,51.12v48S1831,337.8,1853.31,331c0,0,26.41-24,72.14-34.95a168.16,168.16,0,0,1,11.7,30.93C1847.15,338,1850.71,406.15,1850.71,406.15Z"/></g></g></svg>