<svg id="Ñëîé_1" data-name="Ñëîé 1" xmlns="http://www.w3.org/2000/svg" xmlns:xlink="http://www.w3.org/1999/xlink" viewBox="0 0 2000 2000"><defs><style>.cls-1{fill:none;}.cls-2{clip-path:url(#clip-path);}.cls-3{opacity:0.7;}.cls-4{fill:#0aa65a;}.cls-5{fill:#87e355;}.cls-6{fill:#4fd995;}.cls-7{fill:#0ab361;}.cls-8{fill:#3ab54b;}.cls-9{fill:#175177;}.cls-10{font-size:250px;font-family:AntarcticanHeadline-Book, Antarctican Headline;}.cls-11{letter-spacing:-0.01em;}.cls-12{letter-spacing:-0.01em;}</style><clipPath id="clip-path"><circle class="cls-1" cx="986.74" cy="805.56" r="505.56"/></clipPath></defs><g class="cls-2"><g class="cls-3"><circle class="cls-4" cx="1387.49" cy="1028.82" r="300.45"/></g><g class="cls-3"><circle class="cls-5" cx="1387.49" cy="516.38" r="310.99"/></g><g class="cls-3"><circle class="cls-6" cx="1022.85" cy="705.01" r="318.36"/></g><g class="cls-3"><circle class="cls-7" cx="986.74" cy="363.98" r="296.93"/></g><g class="cls-3"><circle class="cls-7" cx="675.75" cy="933.75" r="310.99"/></g><g class="cls-3"><circle class="cls-8" cx="642.41" cy="553.45" r="306.45" transform="translate(-203.19 616.35) rotate(-45)"/></g><g class="cls-3"><path class="cls-9" d="M1220.74,906.75v347a500,500,0,0,1-164,52.54V536.53c0-116.38-75.26-189.48-142.18-231.41a511.08,511.08,0,0,1,72.16-5.1,503,503,0,0,1,129.68,16.79c29,45.83,50,97.16,50,150.38v141.1s-3.62,97.43,62,77.27c0,0,77.67-70.55,212.19-102.8a493.55,493.55,0,0,1,34.4,91C1210.25,706.26,1220.74,906.75,1220.74,906.75Z"/></g></g><text class="cls-10" transform="translate(490.5 1625.54)">TREE T<tspan class="cls-11" x="456.74" y="0">R</tspan><tspan class="cls-12" x="549.24" y="0">A</tspan><tspan x="630.74" y="0">CKER</tspan></text></svg>